<svg xmlns="http://www.w3.org/2000/svg" version="1.1" width="64px" height="64px"
    style="shape-rendering:geometricPrecision; text-rendering:geometricPrecision; image-rendering:optimizeQuality; fill-rule:evenodd; clip-rule:evenodd; stroke:var(--color); fill: white;"
    xmlns:xlink="http://www.w3.org/1999/xlink" >
    <g>
        <path style="opacity:0.723;"
            d="M 18.5,-0.5 C 29.5,-0.5 40.5,-0.5 51.5,-0.5C 55.1468,0.983199 57.6468,3.64987 59,7.5C 59.4999,23.4965 59.6666,39.4965 59.5,55.5C 58.1667,55.5 56.8333,55.5 55.5,55.5C 55.6666,40.163 55.4999,24.8297 55,9.5C 54.1667,6.66667 52.3333,4.83333 49.5,4C 39.172,3.50017 28.8387,3.33351 18.5,3.5C 18.5,2.16667 18.5,0.833333 18.5,-0.5 Z" />
    </g>
    <g>
        <path style="opacity:0.728;"
            d="M 47.5,63.5 C 34.8333,63.5 22.1667,63.5 9.5,63.5C 7.85639,62.6836 6.68972,61.3502 6,59.5C 5.02974,42.7417 5.36307,26.075 7,9.5C 7.75044,8.87424 8.58377,8.37424 9.5,8C 20.8333,7.33333 32.1667,7.33333 43.5,8C 49.3584,10.5428 52.0251,15.0428 51.5,21.5C 47.3628,21.8537 43.3628,21.3537 39.5,20C 37.8207,17.4355 37.154,14.6021 37.5,11.5C 28.8269,11.3336 20.1603,11.5002 11.5,12C 11,12.5 10.5,13 10,13.5C 9.33333,28.1667 9.33333,42.8333 10,57.5C 10.5,58 11,58.5 11.5,59C 22.8333,59.6667 34.1667,59.6667 45.5,59C 46,58.5 46.5,58 47,57.5C 47.4998,46.505 47.6665,35.505 47.5,24.5C 48.8333,24.5 50.1667,24.5 51.5,24.5C 51.6665,36.1714 51.4999,47.8381 51,59.5C 50.3103,61.3502 49.1436,62.6836 47.5,63.5 Z M 41.5,12.5 C 44.0419,12.7059 45.7086,14.0392 46.5,16.5C 43.2125,17.5683 41.5458,16.2349 41.5,12.5 Z" />
    </g>
</svg>